<?xml version="1.0" encoding="iso-8859-1"?>
<!-- Generator: Adobe Illustrator 19.1.0, SVG Export Plug-In . SVG Version: 6.00 Build 0)  -->
<svg version="1.1" id="Capa_1" xmlns="http://www.w3.org/2000/svg" xmlns:xlink="http://www.w3.org/1999/xlink" x="0px" y="0px"
	 viewBox="0 0 421.83 421.83" style="enable-background:new 0 0 421.83 421.83;" xml:space="preserve">
<g>
	<g>
		<path style="fill:#222222;" d="M227.145,0c-43.087,0-81.886,9.425-115.724,28.488c-33.839,19.027-60.166,46.205-78.414,80.858
			C14.759,143.929,5.723,183.33,5.723,227.019c0,60.13,17.15,108.638,51.909,143.22s83.693,51.591,144.638,51.591
			c40.854,0,77.74-7.051,110.409-21.331c3.543-1.559,6.024-5.315,6.024-9.177v-32.457c0-3.224-1.665-6.413-4.323-8.256
			c-2.657-1.807-6.236-2.232-9.248-1.098c-35.823,13.642-70.051,20.339-102.862,20.339c-47.516,0-82.169-12.579-106.157-37.063
			c-24.059-24.484-36.461-59.563-36.461-107.468c0-35.327,6.803-65.941,20.161-92.268c13.323-26.291,32.28-46.134,57.508-60.236
			c25.157-14.138,54.921-21.331,89.823-21.331c27.425,0,51.165,5.634,71.787,16.76c20.622,11.091,36.177,26.575,47.339,47.126
			c11.161,20.48,16.866,44.504,16.866,72.602c0,26.858-4.5,48.012-12.756,63.532c-8.256,15.555-16.406,20.941-27.283,20.941
			c-8.575,0-12.827-2.197-16.335-6.874s-6.13-13.358-6.13-26.575v-5.386l6.094-114.201c0.213-4.394-2.799-8.752-6.98-10.063
			c-11.835-3.791-24.98-6.697-39.437-8.787c-14.35-2.091-27.354-3.154-39.012-3.154c-33.484,0-62.008,11.587-83.055,34.335
			c-21.012,22.713-31.465,52.583-31.465,87.732c0,30.224,7.406,55.488,22.961,74.339c15.591,18.921,38.232,28.665,64.913,28.665
			c18.213,0,34.724-4.5,48.614-13.606c8.079-5.35,14.988-12.083,20.87-19.807c3.472,6.839,8.114,13.004,14.031,18.213
			c11.409,10.063,25.972,15.201,41.988,15.201c19.028,0,36.567-6.201,51.236-18.106c14.598-11.906,25.689-28.453,33.343-48.933
			c7.618-20.445,11.374-42.839,11.374-66.969c0-36.744-7.795-69.732-23.563-98.433c-15.766-28.702-38.407-51.166-67.25-66.757
			C296.452,7.689,263.57,0,227.145,0L227.145,0z M221.298,147.437c9.992,0,19.276,0.921,27.886,2.657l-2.976,55.346v0.035
			c-1.382,24.378-6.591,41.669-14.031,52.051c-7.476,10.382-16.583,14.917-30.933,14.917c-13.677,0-21.756-3.791-27.744-11.587
			c-5.953-7.76-9.85-21.047-9.85-40.429c0-24.52,5.563-42.307,15.697-54.709C189.479,153.319,202.448,147.437,221.298,147.437
			L221.298,147.437z"/>
	</g>
	<g>
	</g>
	<g>
	</g>
	<g>
	</g>
	<g>
	</g>
	<g>
	</g>
	<g>
	</g>
	<g>
	</g>
	<g>
	</g>
	<g>
	</g>
	<g>
	</g>
	<g>
	</g>
	<g>
	</g>
	<g>
	</g>
	<g>
	</g>
	<g>
	</g>
</g>
<g>
</g>
<g>
</g>
<g>
</g>
<g>
</g>
<g>
</g>
<g>
</g>
<g>
</g>
<g>
</g>
<g>
</g>
<g>
</g>
<g>
</g>
<g>
</g>
<g>
</g>
<g>
</g>
<g>
</g>
</svg>
